<?xml version="1.0" encoding="UTF-8" standalone="no"?>
<!-- Created with Inkscape (http://www.inkscape.org/) -->

<svg
   xmlns:dc="http://purl.org/dc/elements/1.1/"
   xmlns:cc="http://creativecommons.org/ns#"
   xmlns:rdf="http://www.w3.org/1999/02/22-rdf-syntax-ns#"
   xmlns:svg="http://www.w3.org/2000/svg"
   xmlns="http://www.w3.org/2000/svg"
   xmlns:sodipodi="http://sodipodi.sourceforge.net/DTD/sodipodi-0.dtd"
   xmlns:inkscape="http://www.inkscape.org/namespaces/inkscape"
   width="300"
   height="160"
   viewBox="0 0 79.374998 42.333334"
   version="1.1"
   id="svg8"
   inkscape:version="0.92.4 (5da689c313, 2019-01-14)"
   sodipodi:docname="logo.svg">
  <defs
     id="defs2" />
  <sodipodi:namedview
     id="base"
     pagecolor="#ffffff"
     bordercolor="#666666"
     borderopacity="1.0"
     inkscape:pageopacity="0.0"
     inkscape:pageshadow="2"
     inkscape:zoom="2.8"
     inkscape:cx="163.72767"
     inkscape:cy="88.49933"
     inkscape:document-units="mm"
     inkscape:current-layer="g104"
     showgrid="false"
     units="px"
     inkscape:window-width="1920"
     inkscape:window-height="1026"
     inkscape:window-x="0"
     inkscape:window-y="28"
     inkscape:window-maximized="1" />
  <metadata
     id="metadata5">
    <rdf:RDF>
      <cc:Work
         rdf:about="">
        <dc:format>image/svg+xml</dc:format>
        <dc:type
           rdf:resource="http://purl.org/dc/dcmitype/StillImage" />
        <dc:title></dc:title>
      </cc:Work>
    </rdf:RDF>
  </metadata>
  <g
     inkscape:label="Layer 1"
     inkscape:groupmode="layer"
     id="layer1"
     transform="translate(0,-254.66665)">
    <g
       id="g104"
       transform="translate(3.8866995e-6,-1.2972132)">
      <g
         id="g130"
         transform="translate(-35.853167,5.2916633)">
        <g
           style="clip-rule:evenodd;fill-rule:evenodd;stroke-linejoin:round;stroke-miterlimit:1.41420996"
           id="g93"
           transform="matrix(0.26458333,0,0,0.26458333,-131.26689,200.33258)">
          <g
             id="g81">
            <path
               id="path79"
               style="fill:#445a7d;stroke-width:0.17142856"
               d="m 705.8348,245.03417 c -4.26359,-3.48308 -10.22399,-5.06417 -17.23748,-4.5744 -3.20417,0.22389 -10.69337,1.89446 -14.35303,2.72469 -3.90617,0.88611 -4.96405,3.01783 -5.46394,5.59988 l -1.63748,8.4612 c 0,0 7.47994,-2.55926 12.08931,-3.68125 l -3.5544,4.74874 c -0.80091,1.06971 -1.40469,2.88565 -1.40469,4.224 v 46.03439 l 6.30635,-2.47405 c 3.59794,-1.30509 5.2272,-4.51698 5.2272,-7.66646 v -10.8072 c 2.44594,0.95966 5.51125,1.37246 8.72879,1.14806 5.89612,-0.41212 11.04463,-3.22612 14.49703,-7.92343 3.52286,-4.79229 5.1168,-11.15554 4.61006,-18.40183 -0.54292,-7.76503 -3.16989,-13.62342 -7.80772,-17.41234 z m 132.68742,42.4608 h -4.79812 c -2.26268,0 -4.37125,-1.49966 -5.23902,-3.54583 -2.74663,2.90863 -6.61989,4.37897 -11.55566,4.37897 -5.5548,0 -10.16605,-2.1768 -13.33611,-6.29554 -3.10732,-4.03697 -4.74977,-9.89366 -4.74977,-16.93697 0,-7.35189 1.61897,-13.49709 4.68205,-17.77149 3.19989,-4.4652 7.89223,-6.82542 13.56995,-6.82542 4.00851,0 7.83737,1.44051 10.54697,3.8376 v -21.47914 h 3.8388 c 3.88217,0 7.04091,3.15805 7.04091,7.04005 z m -42.8592,0 h -4.79811 c -2.26269,0 -4.37126,-1.49966 -5.2392,-3.54583 -2.74646,2.90863 -6.61988,4.37897 -11.55548,4.37897 -5.55463,0 -10.16623,-2.1768 -13.33612,-6.29554 -3.10714,-4.03697 -4.74977,-9.89366 -4.74977,-16.93697 0,-7.35189 1.61914,-13.49709 4.68223,-17.77131 3.19971,-4.46538 7.89206,-6.8256 13.5696,-6.8256 4.00868,0 7.83754,1.44051 10.54714,3.8376 v -21.47914 h 3.83863 c 3.88234,0 7.04108,3.15805 7.04108,7.04005 z m -77.61564,-32.68834 c 0,0 11.81074,-4.92429 17.54091,-4.92429 1.53051,0 6.03102,3.5e-4 6.48034,7.02857 -2.6712,0.25577 -6.68486,0.87017 -10.77823,1.93526 -9.78394,2.49857 -15.39531,8.28891 -15.39531,15.88611 0,7.53035 6.09994,13.4292 13.88726,13.4292 5.88771,0 10.02376,-1.25246 13.07759,-4.01537 1.16555,1.95069 3.45052,3.34971 5.6916,3.34971 h 4.45286 V 254.856 c 0,-8.31926 -7.08857,-14.352 -17.08389,-14.352 0,0 -1.03508,0 -1.04417,0.008 0,0 -3.47931,-0.0129 -8.39057,1.30029 0,0 -6.77605,1.73348 -7.43262,6.14571 -0.65657,4.41223 -1.00629,6.84823 -1.00629,6.84823 z m 159.88232,23.85274 c -3.708,0 -7.93543,-1.85932 -9.21771,-5.90726 3.41657,-0.33188 9.72514,-1.03903 15.30685,-3.42343 7.596,-3.2436 11.44629,-8.4648 11.44629,-15.51891 0,-8.64051 -6.08915,-13.596 -16.70572,-13.596 -6.36342,0 -12.06685,2.49634 -16.05599,7.02909 -3.84343,4.36525 -5.96058,10.42114 -5.96058,17.052 0,14.64857 8.05543,23.74816 21.02057,23.74816 4.59086,0 10.56343,-1.54731 10.8,-1.60954 3.04286,-0.75497 4.85315,-2.5752 5.53543,-5.56491 l 2.028,-8.89423 c 0,0 -7.23257,6.68503 -18.19714,6.68503 z m -24.27771,-21.79766 c -0.003,-13.26805 -0.007,-26.87279 -0.007,-26.89388 0,-3.72943 -2.712,-7.10674 -7.05428,-7.10674 l -3.82818,-0.002 c 0,0 0.005,15.49354 0.009,30.64542 0.003,13.26806 0.009,26.87297 0.009,26.89406 0,3.72943 2.712,7.10657 7.05428,7.10657 l 3.82629,0.002 c 0,0 -0.005,-15.49337 -0.009,-30.64543 z m -25.44857,6.88595 c 0,10.22588 -2.94548,15.19662 -9.00463,15.19662 -8.22,0 -9.17074,-8.19805 -9.17074,-14.36451 0,-4.31897 0.84514,-14.36451 8.67291,-14.36451 8.26783,0 9.50246,8.47851 9.50246,13.5324 z m -43.30354,0 c 0,10.22588 -2.94548,15.19662 -9.0048,15.19662 -8.22034,0 -9.17091,-8.19805 -9.17091,-14.36451 0,-4.31897 0.84514,-14.36451 8.67326,-14.36451 8.26782,0 9.50245,8.47851 9.50245,13.5324 z m -42.79508,8.65439 c 0,3.21772 -4.70674,6.37595 -9.50245,6.37595 -2.82669,0 -5.85309,-1.75955 -5.85309,-4.3788 0,-2.6208 0.91337,-4.43263 5.59543,-5.9424 3.59657,-1.20292 6.89828,-1.82743 9.76011,-2.24263 z m -48.70765,5.49635 c -3.1548,0.22131 -5.76686,-0.51463 -7.59051,-2.12897 V 252.0648 c 2.18657,-0.45926 3.79165,-0.74383 4.47599,-0.79183 6.99378,-0.48908 11.3076,3.6492 11.84658,11.352 0.35297,5.04686 -1.01795,14.73377 -8.73206,15.27343 z m 191.18912,-23.96726 c 0,6.29572 -8.88857,8.63949 -16.92343,9.47109 0.43715,-8.40377 4.81372,-13.95103 11.16343,-13.95103 2.22686,0 5.76,1.21629 5.76,4.47994 z"
               inkscape:connector-curvature="0" />
          </g>
        </g>
        <text
           xml:space="preserve"
           style="font-style:normal;font-weight:normal;font-size:4.96640348px;line-height:1.25;font-family:sans-serif;letter-spacing:0px;word-spacing:0px;fill:#000000;fill-opacity:1;stroke:none;stroke-width:0.12416008"
           x="71.217468"
           y="271.85822"
           id="text97"
           transform="scale(0.95619224,1.0458148)"><tspan
             sodipodi:role="line"
             id="tspan95"
             x="71.217468"
             y="271.85822"
             style="font-style:normal;font-variant:normal;font-weight:normal;font-stretch:normal;font-family:Ubuntu;-inkscape-font-specification:Ubuntu;stroke-width:0.12416008">Webhook Verifier</tspan></text>
      </g>
    </g>
  </g>
</svg>
